<svg width="47" height="47" viewBox="0 0 47 47" fill="none" xmlns="http://www.w3.org/2000/svg">
<path d="M23.5 0C10.5431 0 0 10.5409 0 23.5C0 36.4591 10.5431 47 23.5 47C36.4569 47 47 36.4591 47 23.5C47 10.5409 36.4569 0 23.5 0ZM23.5 45.4347C11.4063 45.4347 1.56813 35.5944 1.56813 23.5C1.56813 11.4056 11.4063 1.5653 23.5 1.5653C35.5937 1.5653 45.4319 11.4056 45.4319 23.5C45.4319 35.5944 35.5937 45.4347 23.5 45.4347Z" fill="white"/>
<g filter="url(#filter0_d_236_239)">
<path d="M34.6324 13.3882C32.5774 12.4614 30.3746 11.7763 28.0711 11.3868C28.0505 11.3828 28.0293 11.3854 28.0103 11.394C27.9913 11.4027 27.9754 11.4171 27.9649 11.4351C27.6829 11.9308 27.3686 12.5769 27.1483 13.0873C24.7052 12.7223 22.2215 12.7223 19.7784 13.0873C19.533 12.5216 19.2564 11.97 18.9497 11.4351C18.9393 11.4168 18.9235 11.4022 18.9046 11.393C18.8856 11.3839 18.8643 11.3808 18.8436 11.3841C16.5414 11.7736 14.3386 12.4587 12.2822 13.3869C12.2645 13.3943 12.2495 13.4069 12.2392 13.4231C8.05932 19.5685 6.91361 25.562 7.47639 31.4803C7.47796 31.4948 7.48246 31.5089 7.48962 31.5216C7.49677 31.5343 7.50644 31.5454 7.51803 31.5542C9.95773 33.3306 12.6789 34.6837 15.5676 35.5571C15.5877 35.5633 15.6093 35.5633 15.6294 35.557C15.6495 35.5508 15.6673 35.5387 15.6804 35.5222C16.3009 34.6894 16.8543 33.8095 17.3271 32.8854C17.3553 32.8317 17.3285 32.7672 17.2721 32.7457C16.4044 32.4189 15.5637 32.0246 14.7577 31.5663C14.7432 31.558 14.731 31.5463 14.7221 31.5322C14.7133 31.518 14.7081 31.5019 14.7071 31.4853C14.706 31.4686 14.7091 31.452 14.716 31.4368C14.723 31.4217 14.7336 31.4085 14.7469 31.3984C14.9162 31.2735 15.0854 31.1432 15.2466 31.0129C15.2611 31.0012 15.2786 30.9937 15.2971 30.9914C15.3155 30.989 15.3343 30.9918 15.3513 30.9995C20.6259 33.3689 26.3384 33.3689 31.5512 30.9995C31.5682 30.9913 31.5872 30.9882 31.606 30.9903C31.6247 30.9924 31.6425 30.9998 31.6573 31.0116C31.8185 31.1432 31.9864 31.2735 32.1569 31.3984C32.1704 31.4082 32.1812 31.4213 32.1883 31.4363C32.1955 31.4513 32.1989 31.4679 32.1981 31.4845C32.1973 31.5012 32.1924 31.5173 32.1838 31.5316C32.1752 31.5459 32.1632 31.5578 32.1489 31.5663C31.3457 32.0284 30.5102 32.4193 29.6331 32.7443C29.6197 32.7492 29.6074 32.7569 29.5972 32.7669C29.5869 32.777 29.5789 32.789 29.5737 32.8024C29.5685 32.8157 29.5662 32.83 29.5669 32.8444C29.5677 32.8587 29.5715 32.8727 29.5781 32.8854C30.0616 33.8082 30.615 34.6867 31.2234 35.5208C31.2361 35.5379 31.2537 35.5507 31.2739 35.5575C31.2941 35.5642 31.3159 35.5645 31.3363 35.5584C34.2299 34.6875 36.9555 33.3337 39.3979 31.5542C39.4098 31.5459 39.4198 31.5351 39.4272 31.5226C39.4347 31.5101 39.4393 31.4961 39.4409 31.4817C40.1125 24.6392 38.3153 18.694 34.674 13.4258C34.6651 13.4087 34.6503 13.3954 34.6324 13.3882ZM18.1156 27.8764C16.5279 27.8764 15.2184 26.4405 15.2184 24.6795C15.2184 22.9172 16.5024 21.4826 18.1156 21.4826C19.7408 21.4826 21.0383 22.9293 21.0128 24.6795C21.0128 26.4418 19.7287 27.8764 18.1156 27.8764ZM28.8273 27.8764C27.2383 27.8764 25.9301 26.4405 25.9301 24.6795C25.9301 22.9172 27.2128 21.4826 28.8273 21.4826C30.4525 21.4826 31.75 22.9293 31.7244 24.6795C31.7244 26.4418 30.4538 27.8764 28.8273 27.8764Z" fill="white"/>
</g>
<defs>
<filter id="filter0_d_236_239" x="3.34277" y="11.3828" width="40.2363" height="32.1799" filterUnits="userSpaceOnUse" color-interpolation-filters="sRGB">
<feFlood flood-opacity="0" result="BackgroundImageFix"/>
<feColorMatrix in="SourceAlpha" type="matrix" values="0 0 0 0 0 0 0 0 0 0 0 0 0 0 0 0 0 0 127 0" result="hardAlpha"/>
<feOffset dy="4"/>
<feGaussianBlur stdDeviation="2"/>
<feComposite in2="hardAlpha" operator="out"/>
<feColorMatrix type="matrix" values="0 0 0 0 0 0 0 0 0 0 0 0 0 0 0 0 0 0 0.25 0"/>
<feBlend mode="normal" in2="BackgroundImageFix" result="effect1_dropShadow_236_239"/>
<feBlend mode="normal" in="SourceGraphic" in2="effect1_dropShadow_236_239" result="shape"/>
</filter>
</defs>
</svg>
