<svg width="47" height="47" viewBox="0 0 47 47" fill="none" xmlns="http://www.w3.org/2000/svg">
<path d="M23.5 0C10.5431 0 0 10.5409 0 23.5C0 36.4591 10.5431 47 23.5 47C36.4569 47 47 36.4591 47 23.5C47 10.5409 36.4569 0 23.5 0ZM23.5 45.4347C11.4063 45.4347 1.56813 35.5944 1.56813 23.5C1.56813 11.4056 11.4063 1.5653 23.5 1.5653C35.5937 1.5653 45.4319 11.4056 45.4319 23.5C45.4319 35.5944 35.5937 45.4347 23.5 45.4347Z" fill="white"/>
<path d="M23.4951 19.5817C21.3377 19.5817 19.5771 21.3424 19.5771 23.5C19.5771 25.6576 21.3377 27.4183 23.4951 27.4183C25.6525 27.4183 27.4132 25.6576 27.4132 23.5C27.4132 21.3424 25.6525 19.5817 23.4951 19.5817ZM35.2462 23.5C35.2462 21.8774 35.2609 20.2695 35.1698 18.6498C35.0787 16.7686 34.6496 15.0989 33.274 13.7233C31.8955 12.3447 30.229 11.9184 28.3478 11.8273C26.7254 11.7362 25.1176 11.7509 23.4981 11.7509C21.8756 11.7509 20.2678 11.7362 18.6483 11.8273C16.7672 11.9184 15.0977 12.3476 13.7221 13.7233C12.3436 15.1019 11.9174 16.7686 11.8263 18.6498C11.7352 20.2724 11.7499 21.8803 11.7499 23.5C11.7499 25.1197 11.7352 26.7305 11.8263 28.3502C11.9174 30.2314 12.3466 31.9011 13.7221 33.2767C15.1006 34.6553 16.7672 35.0816 18.6483 35.1727C20.2708 35.2638 21.8785 35.2491 23.4981 35.2491C25.1205 35.2491 26.7283 35.2638 28.3478 35.1727C30.229 35.0816 31.8984 34.6524 33.274 33.2767C34.6525 31.8981 35.0787 30.2314 35.1698 28.3502C35.2639 26.7305 35.2462 25.1226 35.2462 23.5ZM23.4951 29.5289C20.1591 29.5289 17.4667 26.8363 17.4667 23.5C17.4667 20.1637 20.1591 17.4711 23.4951 17.4711C26.8312 17.4711 29.5235 20.1637 29.5235 23.5C29.5235 26.8363 26.8312 29.5289 23.4951 29.5289ZM29.7704 18.6322C28.9915 18.6322 28.3625 18.0032 28.3625 17.2242C28.3625 16.4452 28.9915 15.8162 29.7704 15.8162C30.5493 15.8162 31.1783 16.4452 31.1783 17.2242C31.1786 17.4092 31.1423 17.5924 31.0716 17.7633C31.001 17.9342 30.8973 18.0895 30.7665 18.2203C30.6357 18.3511 30.4804 18.4548 30.3095 18.5255C30.1386 18.5962 29.9554 18.6324 29.7704 18.6322Z" fill="white"/>
</svg>
