<svg width="92" height="91" viewBox="0 0 92 91" fill="none" xmlns="http://www.w3.org/2000/svg">
<rect x="0.5" y="0.5" width="91" height="90" rx="45" fill="white" fill-opacity="0.5"/>
<path d="M73.0917 36.6787C75.0742 42.7693 74.9472 49.35 72.7314 55.3596C70.5155 61.3692 66.34 66.4571 60.8782 69.8028C55.4163 73.1485 48.9868 74.5568 42.6265 73.8006C36.2662 73.0444 30.3461 70.1678 25.821 65.6348C21.2959 61.1017 18.4297 55.1766 17.6847 48.815C16.9397 42.4534 18.3593 36.0263 21.7146 30.5704C25.0699 25.1145 30.1651 20.9478 36.1786 18.7425C42.1921 16.5372 48.7731 16.4219 54.8601 18.4151L51.1261 22.1455C50.9195 22.3486 50.7342 22.573 50.5632 22.8046C45.6894 21.8209 40.6284 22.4318 36.1287 24.5471C31.629 26.6623 27.9295 30.1695 25.5774 34.5501C23.2253 38.9306 22.3454 43.9518 23.0678 48.8711C23.7903 53.7904 26.0768 58.3466 29.5891 61.8658C33.1015 65.3851 37.6531 67.6805 42.571 68.4126C47.4889 69.1448 52.5118 68.2747 56.897 65.9312C61.2821 63.5877 64.7966 59.8951 66.9207 55.3995C69.0447 50.904 69.6656 45.8442 68.6914 40.9685C68.9352 40.7956 69.164 40.6025 69.3755 40.3913L73.0881 36.6787H73.0917ZM63.4539 41.9554C64.2188 45.7078 63.7543 49.6067 62.1291 53.0742C60.5038 56.5418 57.8045 59.3933 54.4313 61.2061C51.058 63.0189 47.1904 63.6965 43.4018 63.1383C39.6132 62.5802 36.1052 60.8161 33.3981 58.1075C30.6909 55.399 28.9286 51.8901 28.3724 48.1012C27.8162 44.3123 28.4957 40.4451 30.3103 37.0727C32.1248 33.7004 34.9777 31.0025 38.4461 29.3791C41.9144 27.7557 45.8136 27.2931 49.5656 28.06V33.5683C46.9064 32.7744 44.0584 32.8903 41.4725 33.8975C38.8866 34.9047 36.7105 36.7457 35.2888 39.129C33.8671 41.5123 33.2811 44.3018 33.6234 47.0557C33.9657 49.8096 35.2168 52.3707 37.1787 54.3335C39.1406 56.2962 41.7012 57.5484 44.455 57.8919C47.2088 58.2354 49.9985 57.6505 52.3824 56.2298C54.7663 54.8091 56.6082 52.6339 57.6165 50.0484C58.6248 47.4629 58.7419 44.615 57.9492 41.9554H63.4539ZM45.9955 50.8628C46.8151 50.8632 47.6239 50.6751 48.3592 50.3131C49.0945 49.951 49.7367 49.4247 50.2361 48.7748C50.7355 48.1249 51.0787 47.3688 51.2392 46.565C51.3997 45.7613 51.3732 44.9314 51.1618 44.1395L56.7983 38.4994L56.9052 38.3925H65.5988C65.8329 38.3929 66.0648 38.3472 66.2812 38.2579C66.4976 38.1687 66.6943 38.0376 66.8601 37.8723L73.986 30.7464C74.2358 30.4973 74.4059 30.1796 74.4749 29.8336C74.5439 29.4876 74.5087 29.1289 74.3736 28.803C74.2385 28.4771 74.0096 28.1986 73.7161 28.0029C73.4225 27.8072 73.0775 27.703 72.7247 27.7037H63.8173V18.7963C63.8173 18.4442 63.7129 18.1001 63.5173 17.8073C63.3218 17.5145 63.0439 17.2862 62.7187 17.1513C62.3935 17.0163 62.0357 16.9808 61.6903 17.0491C61.3449 17.1174 61.0275 17.2865 60.7781 17.535L53.6523 24.6609C53.4863 24.8264 53.3546 25.0229 53.2647 25.2394C53.1748 25.4558 53.1286 25.6878 53.1285 25.9222V34.6158C53.0919 34.6504 53.0563 34.6861 53.0216 34.7227L47.385 40.3521C46.5925 40.1395 45.7617 40.112 44.9569 40.2719C44.152 40.4318 43.3948 40.7748 42.7438 41.2743C42.0927 41.7737 41.5654 42.4163 41.2025 43.1523C40.8396 43.8882 40.6509 44.6978 40.6511 45.5184C40.6511 46.9358 41.2142 48.2952 42.2164 49.2975C43.2187 50.2997 44.5781 50.8628 45.9955 50.8628Z" fill="white"/>
<rect x="0.5" y="0.5" width="91" height="90" rx="45" stroke="url(#paint0_linear_236_150)"/>
<defs>
<linearGradient id="paint0_linear_236_150" x1="0" y1="0" x2="92" y2="91" gradientUnits="userSpaceOnUse">
<stop stop-color="white"/>
<stop offset="1" stop-color="white" stop-opacity="0"/>
</linearGradient>
</defs>
</svg>
