<svg width="47" height="47" viewBox="0 0 47 47" fill="none" xmlns="http://www.w3.org/2000/svg">
<path d="M23.5 0C10.5431 0 0 10.5409 0 23.5C0 36.4591 10.5431 47 23.5 47C36.4569 47 47 36.4591 47 23.5C47 10.5409 36.4569 0 23.5 0ZM23.5 45.4347C11.4063 45.4347 1.56813 35.5944 1.56813 23.5C1.56813 11.4056 11.4063 1.5653 23.5 1.5653C35.5937 1.5653 45.4319 11.4056 45.4319 23.5C45.4319 35.5944 35.5937 45.4347 23.5 45.4347Z" fill="white"/>
<path d="M38.307 14.5384C37.2439 15.0095 36.1019 15.3278 34.9014 15.4717C36.1401 14.7304 37.0669 13.5638 37.5087 12.1894C36.3449 12.8807 35.0711 13.3673 33.7428 13.6281C32.8496 12.6743 31.6664 12.0421 30.3771 11.8297C29.0878 11.6172 27.7644 11.8364 26.6124 12.4532C25.4604 13.0701 24.5442 14.05 24.0062 15.2409C23.4681 16.4317 23.3383 17.767 23.6368 19.0392C21.2785 18.9208 18.9716 18.3078 16.8656 17.2401C14.7595 16.1723 12.9016 14.6736 11.4122 12.8413C10.903 13.7198 10.6102 14.7383 10.6102 15.8231C10.6096 16.7996 10.8501 17.7612 11.3102 18.6225C11.7704 19.4838 12.436 20.2182 13.2481 20.7606C12.3063 20.7306 11.3853 20.4761 10.5618 20.0183V20.0947C10.5617 21.4643 11.0354 22.7918 11.9026 23.8519C12.7698 24.912 13.977 25.6394 15.3194 25.9107C14.4458 26.1471 13.5299 26.182 12.6408 26.0125C13.0195 27.191 13.7573 28.2216 14.7508 28.9599C15.7443 29.6982 16.9438 30.1074 18.1814 30.1301C16.0806 31.7794 13.486 32.6741 10.8151 32.6701C10.342 32.6703 9.86929 32.6426 9.39941 32.5874C12.1105 34.3306 15.2664 35.2558 18.4895 35.2522C29.4002 35.2522 35.3648 26.215 35.3648 18.3771C35.3648 18.1225 35.3584 17.8653 35.347 17.6107C36.5072 16.7716 37.5086 15.7326 38.3044 14.5423L38.307 14.5384Z" fill="white"/>
</svg>
