<svg width="92" height="92" viewBox="0 0 92 92" fill="none" xmlns="http://www.w3.org/2000/svg">
<rect x="0.5" y="0.5" width="91" height="91" rx="45.5" fill="white" fill-opacity="0.5"/>
<path d="M74.8905 42.7605C76.3698 44.6955 76.3698 47.3077 74.8905 49.2395C70.231 55.3221 59.052 67.8462 46.0005 67.8462C32.9489 67.8462 21.7699 55.3221 17.1104 49.2395C16.3907 48.313 16 47.1732 16 46C16 44.8268 16.3907 43.687 17.1104 42.7605C21.7699 36.6779 32.9489 24.1538 46.0005 24.1538C59.052 24.1538 70.231 36.6779 74.8905 42.7605V42.7605Z" stroke="white" stroke-width="5" stroke-linecap="round" stroke-linejoin="round"/>
<path d="M46.0004 55.3627C51.1712 55.3627 55.363 51.1708 55.363 46C55.363 40.8291 51.1712 36.6373 46.0004 36.6373C40.8295 36.6373 36.6377 40.8291 36.6377 46C36.6377 51.1708 40.8295 55.3627 46.0004 55.3627Z" stroke="white" stroke-width="5" stroke-linecap="round" stroke-linejoin="round"/>
<rect x="0.5" y="0.5" width="91" height="91" rx="45.5" stroke="url(#paint0_linear_236_153)"/>
<defs>
<linearGradient id="paint0_linear_236_153" x1="0" y1="0" x2="92" y2="92" gradientUnits="userSpaceOnUse">
<stop stop-color="white"/>
<stop offset="1" stop-color="white" stop-opacity="0"/>
</linearGradient>
</defs>
</svg>
