<svg width="92" height="92" viewBox="0 0 92 92" fill="none" xmlns="http://www.w3.org/2000/svg">
<rect x="0.5" y="0.5" width="91" height="91" rx="45.5" fill="white" fill-opacity="0.5"/>
<path d="M62.8765 32.0974L55.6529 21.7222C55.1175 20.9548 54.4059 20.3253 53.577 19.8859C52.7482 19.4465 51.826 19.2099 50.8868 19.1955L37.1783 19H37.15C30.0726 19 24.6424 20.1771 21.145 25.9217C17.889 31.2689 16.5 40.3777 16.5 56.3784V58.3339H20.9935L18.1009 73H22.1092L25.0018 58.3339H26.3333C29.5454 58.3624 32.6398 57.1336 34.9483 54.9128C37.0353 52.9272 38.5407 50.2108 39.3019 47.0574L39.3088 47.029L42.682 30.9572H38.6638L35.4706 46.1718C34.4981 50.1658 31.59 54.4229 26.3333 54.4229H20.4407C20.5475 40.5798 21.8152 32.3726 24.5099 27.9464C26.7715 24.231 30.0774 22.9122 37.1364 22.9104L50.8303 23.1059C51.1433 23.1106 51.4507 23.1895 51.727 23.336C52.0033 23.4824 52.2405 23.6923 52.419 23.9481L60.5902 35.6833L71.5667 37.5024V39.5751L69.7362 49.2817C69.196 52.1466 68.2725 53.5898 64.4854 54.0421L48.9603 56.6831L48.8577 73H52.791L52.873 59.9847L65.0049 57.9192C67.7533 57.5832 69.7811 56.7025 71.2031 55.2276C72.4187 53.9666 73.1586 52.3555 73.6023 50.0026L75.5 39.9386V34.1893L62.8765 32.0974Z" fill="white"/>
<rect x="0.5" y="0.5" width="91" height="91" rx="45.5" stroke="url(#paint0_linear_236_157)"/>
<defs>
<linearGradient id="paint0_linear_236_157" x1="0" y1="0" x2="92" y2="92" gradientUnits="userSpaceOnUse">
<stop stop-color="white"/>
<stop offset="1" stop-color="white" stop-opacity="0"/>
</linearGradient>
</defs>
</svg>
